<svg width="22" height="22" viewBox="0 0 22 22" fill="none" xmlns="http://www.w3.org/2000/svg">
<path fill-rule="evenodd" clip-rule="evenodd" d="M1.37572 10.9999C1.37572 10.8176 1.44816 10.6427 1.57709 10.5138C1.70602 10.3848 1.88089 10.3124 2.06322 10.3124H18.2786L13.9515 5.98664C13.8876 5.92272 13.8368 5.84684 13.8023 5.76332C13.7677 5.6798 13.7499 5.59029 13.7499 5.49989C13.7499 5.40949 13.7677 5.31998 13.8023 5.23646C13.8368 5.15295 13.8876 5.07706 13.9515 5.01314C14.0154 4.94922 14.0913 4.89852 14.1748 4.86392C14.2583 4.82933 14.3478 4.81152 14.4382 4.81152C14.5286 4.81152 14.6181 4.82933 14.7017 4.86392C14.7852 4.89852 14.8611 4.94922 14.925 5.01314L20.425 10.5131C20.489 10.577 20.5398 10.6529 20.5745 10.7364C20.6091 10.8199 20.627 10.9095 20.627 10.9999C20.627 11.0903 20.6091 11.1799 20.5745 11.2634C20.5398 11.3469 20.489 11.4228 20.425 11.4866L14.925 16.9866C14.8611 17.0506 14.7852 17.1013 14.7017 17.1359C14.6181 17.1705 14.5286 17.1883 14.4382 17.1883C14.3478 17.1883 14.2583 17.1705 14.1748 17.1359C14.0913 17.1013 14.0154 17.0506 13.9515 16.9866C13.8876 16.9227 13.8368 16.8468 13.8023 16.7633C13.7677 16.6798 13.7499 16.5903 13.7499 16.4999C13.7499 16.4095 13.7677 16.32 13.8023 16.2365C13.8368 16.1529 13.8876 16.0771 13.9515 16.0131L18.2786 11.6874H2.06322C1.88089 11.6874 1.70602 11.615 1.57709 11.486C1.44816 11.3571 1.37572 11.1822 1.37572 10.9999Z" fill="#2A71F9"/>
</svg>
