<svg width="34" height="34" viewBox="0 0 34 34" fill="none" xmlns="http://www.w3.org/2000/svg">
<path d="M33.0515 28.4598V29.4738C33.0515 29.8515 32.7451 30.1579 32.3674 30.1579H1.63326C1.25531 30.1579 0.949219 29.8515 0.949219 29.4738V28.4598C0.949219 27.9654 1.14948 27.5172 1.47398 27.1937C1.79823 26.8695 2.24544 26.6689 2.74011 26.6689H31.2606C31.7552 26.6689 32.2032 26.8695 32.5275 27.1945C32.8509 27.518 33.0515 27.9654 33.0515 28.4598Z" fill="#E29C6D"/>
<path d="M32.5281 27.1945C31.8124 27.8811 30.9704 28.2726 30.0612 28.2726H3.94072C3.66031 28.2726 3.38586 28.2349 3.11972 28.1631C2.52388 28.0023 1.96902 27.6692 1.47461 27.1937C1.79886 26.8695 2.24606 26.6689 2.74074 26.6689H31.2612C31.7556 26.6689 32.2038 26.8695 32.5281 27.1945Z" fill="#C97F4C"/>
<path d="M23.5864 20.5885C23.5864 24.3791 21.8227 27.4514 19.6466 27.4514H3.93945V13.7256H19.6466C21.8227 13.7256 23.5864 16.7987 23.5864 20.5885Z" fill="#19AA60"/>
<path d="M23.5859 20.5885C23.5859 24.3791 21.8222 27.4514 19.6461 27.4514H12.177C10.6302 26.1967 9.5918 23.6248 9.5918 20.5885C9.5918 17.5533 10.6302 14.9803 12.177 13.7256H19.6461C21.8222 13.7256 23.5859 16.7987 23.5859 20.5885Z" fill="#149856"/>
<path d="M7.87978 20.5888C7.87978 16.7984 6.11586 13.7256 3.94002 13.7256C1.76392 13.7256 0 16.7984 0 20.5888C0 24.3791 1.76392 27.4517 3.94002 27.4517C6.11586 27.4517 7.87978 24.3791 7.87978 20.5888Z" fill="#1FC974"/>
<path d="M6.20024 20.5889C6.20024 17.7848 5.18832 15.5117 3.94009 15.5117C2.6916 15.5117 1.67969 17.7848 1.67969 20.5889C1.67969 23.3928 2.6916 25.6662 3.94009 25.6662C5.18832 25.6662 6.20024 23.3928 6.20024 20.5889Z" fill="#C97F4C"/>
<path d="M3.94083 23.7667C3.6573 23.7667 3.42773 23.5371 3.42773 23.2536V17.9242C3.42773 17.6407 3.6573 17.4111 3.94083 17.4111C4.22409 17.4111 4.45392 17.641 4.45392 17.9242V23.2536C4.45392 23.5371 4.22409 23.7667 3.94083 23.7667Z" fill="#1FC974"/>
<path d="M30.0602 27.4517C32.2363 27.4517 34.0002 24.3789 34.0002 20.5888C34.0002 16.7984 32.2363 13.7256 30.0602 13.7256H14.3535V27.4517H30.0602Z" fill="#1FC974"/>
<path d="M18.2941 20.5888C18.2941 16.7984 16.5299 13.7256 14.3541 13.7256C12.178 13.7256 10.4141 16.7984 10.4141 20.5888C10.4141 24.3791 12.178 27.4517 14.3541 27.4517C16.5299 27.4517 18.2941 24.3791 18.2941 20.5888Z" fill="#5BE167"/>
<path d="M16.6143 20.5889C16.6143 17.7848 15.6024 15.5117 14.3542 15.5117C13.1059 15.5117 12.0938 17.7848 12.0938 20.5889C12.0938 23.3928 13.1059 25.6662 14.3542 25.6662C15.6024 25.6662 16.6143 23.3928 16.6143 20.5889Z" fill="#E29C6D"/>
<path d="M14.3529 23.7667C14.0697 23.7667 13.8398 23.5371 13.8398 23.2536V17.9242C13.8398 17.6407 14.0697 17.4111 14.3529 17.4111C14.6362 17.4111 14.866 17.641 14.866 17.9242V23.2536C14.866 23.5371 14.6362 23.7667 14.3529 23.7667Z" fill="#5BE167"/>
<path d="M28.4067 6.86293C28.4067 9.4743 27.5693 11.7453 26.3364 12.9051C25.7803 13.4291 25.1442 13.7259 24.4669 13.7259H8.75977V0H24.4669C26.643 0 28.4067 3.07233 28.4067 6.86293Z" fill="#1FC974"/>
<path d="M26.3364 12.9053C25.7803 13.4293 25.1442 13.726 24.4669 13.726H8.75977V12.9053H26.3364Z" fill="#19AA60"/>
<path d="M12.7006 6.86293C12.7006 9.4743 11.8633 11.7453 10.6303 12.9051C10.0742 13.4291 9.43736 13.7259 8.76007 13.7259C8.08356 13.7259 7.44673 13.4291 6.89058 12.9051C5.65765 11.7453 4.82031 9.4743 4.82031 6.86293C4.82031 3.07233 6.58475 0 8.76007 0C10.9362 0 12.7006 3.07233 12.7006 6.86293Z" fill="#5BE167"/>
<path d="M10.6304 12.9053C10.0742 13.4293 9.43741 13.726 8.76012 13.726C8.0836 13.726 7.44678 13.4293 6.89062 12.9053H10.6304Z" fill="#1FC974"/>
<path d="M11.0206 6.86336C11.0206 4.05925 10.0086 1.78613 8.76015 1.78613C7.51192 1.78613 6.5 4.05925 6.5 6.86336C6.5 9.66747 7.51192 11.9406 8.76015 11.9406C10.0086 11.9406 11.0206 9.66747 11.0206 6.86336Z" fill="#E29C6D"/>
<path d="M8.76114 10.0401C8.47787 10.0401 8.24805 9.81055 8.24805 9.52702V4.19766C8.24805 3.9144 8.47787 3.68457 8.76114 3.68457C9.04466 3.68457 9.27423 3.9144 9.27423 4.19766V9.52728C9.27423 9.81055 9.04466 10.0401 8.76114 10.0401Z" fill="#5BE167"/>
<path d="M22.3482 25.3846C22.065 25.3846 21.832 25.1548 21.832 24.8715C21.832 24.588 22.0587 24.3584 22.342 24.3584H22.3485C22.6318 24.3584 22.8616 24.588 22.8616 24.8715C22.8616 25.1548 22.6318 25.3846 22.3482 25.3846Z" fill="#19AA60"/>
<path d="M23.5904 24.7808C23.3072 24.7808 23.0742 24.5512 23.0742 24.2677C23.0742 23.9845 23.3007 23.7549 23.5842 23.7549H23.5904C23.8739 23.7549 24.1035 23.9845 24.1035 24.2677C24.1035 24.5512 23.8737 24.7808 23.5904 24.7808Z" fill="#19AA60"/>
<path d="M24.5941 10.5223C24.3132 10.5223 24.081 10.2961 24.0782 10.0146C24.075 9.73111 24.2992 9.49921 24.5827 9.49609H24.5889H24.5944C24.8753 9.49609 25.1043 9.72229 25.1075 10.0037C25.1103 10.287 24.8831 10.5192 24.5998 10.5223C24.5977 10.5223 24.5959 10.5223 24.5941 10.5223Z" fill="#5BE167"/>
<path d="M22.3502 11.5252C22.0667 11.5252 21.834 11.2956 21.834 11.0121C21.834 10.7289 22.0604 10.499 22.3437 10.499H22.3502C22.6335 10.499 22.8633 10.7289 22.8633 11.0121C22.8633 11.2956 22.6335 11.5252 22.3502 11.5252Z" fill="#19AA60"/>
<path d="M21.9947 2.99689C21.7138 2.99689 21.4817 2.77069 21.4785 2.48924C21.4757 2.20598 21.6998 1.97382 21.9831 1.9707H21.9893H21.995C22.2757 1.9707 22.505 2.1969 22.5078 2.47835C22.511 2.76187 22.2835 2.99403 22.0002 2.99689C21.9984 2.99689 21.9966 2.99689 21.9947 2.99689Z" fill="#19AA60"/>
<path d="M18.5865 4.71075C18.3033 4.71075 18.0703 4.48119 18.0703 4.19766C18.0703 3.9144 18.2968 3.68457 18.5803 3.68457H18.5865C18.87 3.68457 19.0996 3.9144 19.0996 4.19766C19.0996 4.48119 18.8698 4.71075 18.5865 4.71075Z" fill="#5BE167"/>
<path d="M19.4462 5.77911C19.1626 5.77911 18.9297 5.54929 18.9297 5.26602C18.9297 4.98276 19.1564 4.75293 19.4397 4.75293H19.4462C19.7294 4.75293 19.9592 4.98276 19.9592 5.26602C19.9592 5.54929 19.7294 5.77911 19.4462 5.77911Z" fill="#5BE167"/>
<path d="M15.2955 9.73029C15.0122 9.73029 14.7793 9.50046 14.7793 9.21719C14.7793 8.93367 15.0058 8.7041 15.2893 8.7041H15.2958C15.579 8.7041 15.8086 8.93367 15.8086 9.21719C15.8086 9.50046 15.579 9.73029 15.2955 9.73029Z" fill="#19AA60"/>
<path d="M9.32089 16.4507C9.03763 16.4507 8.80469 16.2212 8.80469 15.9379C8.80469 15.6544 9.03114 15.4248 9.31467 15.4248H9.32089C9.60442 15.4248 9.83398 15.6544 9.83398 15.9379C9.83398 16.2212 9.60442 16.4507 9.32089 16.4507Z" fill="#149856"/>
<path d="M25.2313 17.9402C24.9478 17.9402 24.7148 17.7104 24.7148 17.4272C24.7148 17.1436 24.9416 16.9141 25.2248 16.9141H25.2313C25.5146 16.9141 25.7444 17.1436 25.7444 17.4272C25.7444 17.7104 25.5146 17.9402 25.2313 17.9402Z" fill="#5BE167"/>
<path d="M30.7994 21.6346C30.5185 21.6346 30.2863 21.4084 30.2832 21.1269C30.2804 20.8434 30.5045 20.6115 30.7878 20.6084H30.7942H30.7997C31.0806 20.6084 31.3097 20.8343 31.3125 21.116C31.3156 21.3993 31.0884 21.6315 30.8051 21.6346C30.8031 21.6346 30.8013 21.6346 30.7994 21.6346Z" fill="#5BE167"/>
</svg>
