<svg width="168" height="35" viewBox="0 0 168 35" fill="none" xmlns="http://www.w3.org/2000/svg">
<path d="M37.496 27.224H34.272V30.624H33V27.224H29.792V26.04H33V22.656H34.272V26.04H37.496V27.224ZM47.0972 26.256C47.0972 27.2587 46.9879 28.128 46.7693 28.864C46.5559 29.6 46.2599 30.2107 45.8813 30.696C45.5079 31.176 45.0653 31.5333 44.5533 31.768C44.0466 32.0027 43.4999 32.12 42.9133 32.12C42.3266 32.12 41.7773 32.0027 41.2653 31.768C40.7586 31.5333 40.3186 31.176 39.9453 30.696C39.5719 30.2107 39.2786 29.6 39.0653 28.864C38.8519 28.128 38.7453 27.2587 38.7453 26.256C38.7453 25.2533 38.8519 24.384 39.0653 23.648C39.2786 22.9067 39.5719 22.296 39.9453 21.816C40.3186 21.3307 40.7586 20.9707 41.2653 20.736C41.7773 20.5013 42.3266 20.384 42.9133 20.384C43.4999 20.384 44.0466 20.5013 44.5533 20.736C45.0653 20.9707 45.5079 21.3307 45.8813 21.816C46.2599 22.296 46.5559 22.9067 46.7693 23.648C46.9879 24.384 47.0972 25.2533 47.0972 26.256ZM45.4813 26.256C45.4813 25.392 45.4093 24.6693 45.2653 24.088C45.1266 23.5067 44.9373 23.04 44.6973 22.688C44.4626 22.3307 44.1906 22.0773 43.8813 21.928C43.5719 21.7787 43.2493 21.704 42.9133 21.704C42.5773 21.704 42.2546 21.7787 41.9453 21.928C41.6359 22.0773 41.3613 22.3307 41.1213 22.688C40.8866 23.04 40.6999 23.5067 40.5613 24.088C40.4226 24.6693 40.3533 25.392 40.3533 26.256C40.3533 27.12 40.4226 27.8427 40.5613 28.424C40.6999 29.0053 40.8866 29.472 41.1213 29.824C41.3613 30.176 41.6359 30.4267 41.9453 30.576C42.2546 30.7253 42.5773 30.8 42.9133 30.8C43.2493 30.8 43.5719 30.7253 43.8813 30.576C44.1906 30.4267 44.4626 30.176 44.6973 29.824C44.9373 29.472 45.1266 29.0053 45.2653 28.424C45.4093 27.8427 45.4813 27.12 45.4813 26.256ZM53.3705 27.808V23.328C53.3705 23.1733 53.3732 23.0107 53.3785 22.84C53.3892 22.664 53.4078 22.4827 53.4345 22.296L49.4105 27.808H53.3705ZM56.4025 27.808V28.712C56.4025 28.8027 56.3732 28.88 56.3145 28.944C56.2558 29.008 56.1732 29.04 56.0665 29.04H54.7385V32H53.3705V29.04H48.3305C48.2132 29.04 48.1145 29.008 48.0345 28.944C47.9545 28.8747 47.9012 28.7893 47.8745 28.688L47.7145 27.888L53.2665 20.504H54.7385V27.808H56.4025ZM62.6518 27.808V23.328C62.6518 23.1733 62.6544 23.0107 62.6598 22.84C62.6704 22.664 62.6891 22.4827 62.7158 22.296L58.6918 27.808H62.6518ZM65.6838 27.808V28.712C65.6838 28.8027 65.6544 28.88 65.5958 28.944C65.5371 29.008 65.4544 29.04 65.3478 29.04H64.0198V32H62.6518V29.04H57.6118C57.4944 29.04 57.3958 29.008 57.3158 28.944C57.2358 28.8747 57.1824 28.7893 57.1558 28.688L56.9958 27.888L62.5478 20.504H64.0198V27.808H65.6838ZM74.7959 30.824C75.1639 30.824 75.4972 30.7653 75.7959 30.648C76.0945 30.5253 76.3505 30.36 76.5639 30.152C76.7772 29.944 76.9425 29.696 77.0599 29.408C77.1772 29.12 77.2359 28.808 77.2359 28.472C77.2359 28.104 77.1772 27.776 77.0599 27.488C76.9479 27.1947 76.7879 26.9467 76.5799 26.744C76.3772 26.5413 76.1319 26.3867 75.8439 26.28C75.5559 26.1733 75.2359 26.12 74.8839 26.12C74.5159 26.12 74.1852 26.184 73.8919 26.312C73.5985 26.4347 73.3479 26.6027 73.1399 26.816C72.9319 27.024 72.7719 27.2693 72.6599 27.552C72.5479 27.8347 72.4919 28.1307 72.4919 28.44C72.4919 28.792 72.5425 29.1147 72.6439 29.408C72.7452 29.7013 72.8945 29.952 73.0919 30.16C73.2892 30.368 73.5292 30.5307 73.8119 30.648C74.0999 30.7653 74.4279 30.824 74.7959 30.824ZM74.0599 24.784C73.9692 24.9013 73.8785 25.016 73.7879 25.128C73.7025 25.2347 73.6199 25.3413 73.5399 25.448C73.7959 25.2827 74.0785 25.1547 74.3879 25.064C74.7025 24.9733 75.0412 24.928 75.4039 24.928C75.8572 24.928 76.2892 25.0027 76.6999 25.152C77.1105 25.3013 77.4705 25.52 77.7799 25.808C78.0945 26.096 78.3425 26.4533 78.5239 26.88C78.7052 27.3067 78.7959 27.7973 78.7959 28.352C78.7959 28.88 78.6999 29.376 78.5079 29.84C78.3159 30.2987 78.0439 30.6987 77.6919 31.04C77.3452 31.376 76.9292 31.6427 76.4439 31.84C75.9585 32.032 75.4199 32.128 74.8279 32.128C74.2412 32.128 73.7105 32.0347 73.2359 31.848C72.7665 31.6613 72.3639 31.3973 72.0279 31.056C71.6972 30.7093 71.4412 30.2933 71.2599 29.808C71.0785 29.3173 70.9879 28.7733 70.9879 28.176C70.9879 27.664 71.0972 27.1253 71.3159 26.56C71.5399 25.9893 71.8919 25.3813 72.3719 24.736L75.2439 20.888C75.3239 20.7813 75.4359 20.6933 75.5799 20.624C75.7239 20.5493 75.8892 20.512 76.0759 20.512H77.4679L74.0599 24.784ZM82.4371 24.8C83.0238 24.6773 83.5545 24.616 84.0291 24.616C84.6265 24.616 85.1545 24.7067 85.6131 24.888C86.0718 25.064 86.4558 25.3093 86.7651 25.624C87.0798 25.9333 87.3145 26.3013 87.4691 26.728C87.6291 27.1493 87.7091 27.608 87.7091 28.104C87.7091 28.712 87.6025 29.264 87.3891 29.76C87.1758 30.256 86.8825 30.68 86.5091 31.032C86.1358 31.384 85.6931 31.656 85.1811 31.848C84.6745 32.0347 84.1278 32.128 83.5411 32.128C83.1945 32.128 82.8638 32.0933 82.5491 32.024C82.2398 31.9547 81.9491 31.864 81.6771 31.752C81.4051 31.6347 81.1518 31.5013 80.9171 31.352C80.6878 31.2027 80.4825 31.0453 80.3011 30.88L80.7811 30.208C80.8825 30.0587 81.0185 29.984 81.1891 29.984C81.3011 29.984 81.4238 30.0267 81.5571 30.112C81.6958 30.192 81.8585 30.2827 82.0451 30.384C82.2318 30.4853 82.4531 30.5787 82.7091 30.664C82.9651 30.744 83.2691 30.784 83.6211 30.784C84.0105 30.784 84.3598 30.7227 84.6691 30.6C84.9838 30.472 85.2478 30.2933 85.4611 30.064C85.6798 29.8347 85.8451 29.56 85.9571 29.24C86.0745 28.92 86.1331 28.5653 86.1331 28.176C86.1331 27.8293 86.0825 27.5173 85.9811 27.24C85.8798 26.9627 85.7278 26.7253 85.5251 26.528C85.3225 26.3307 85.0691 26.1813 84.7651 26.08C84.4611 25.9733 84.1065 25.92 83.7011 25.92C83.1358 25.92 82.5331 26.0213 81.8931 26.224L80.9091 25.936L81.8451 20.512H87.3491V21.192C87.3491 21.416 87.2771 21.6 87.1331 21.744C86.9945 21.8827 86.7598 21.952 86.4291 21.952H82.9331L82.4371 24.8ZM94.5424 27.808V23.328C94.5424 23.1733 94.545 23.0107 94.5504 22.84C94.561 22.664 94.5797 22.4827 94.6064 22.296L90.5824 27.808H94.5424ZM97.5744 27.808V28.712C97.5744 28.8027 97.545 28.88 97.4864 28.944C97.4277 29.008 97.345 29.04 97.2384 29.04H95.9104V32H94.5424V29.04H89.5024C89.385 29.04 89.2864 29.008 89.2064 28.944C89.1264 28.8747 89.073 28.7893 89.0464 28.688L88.8864 27.888L94.4384 20.504H95.9104V27.808H97.5744ZM102.656 30.888C103.018 30.888 103.341 30.8373 103.624 30.736C103.906 30.6347 104.146 30.4933 104.344 30.312C104.541 30.1253 104.69 29.904 104.792 29.648C104.893 29.392 104.944 29.112 104.944 28.808C104.944 28.4347 104.882 28.1147 104.76 27.848C104.637 27.576 104.472 27.3547 104.264 27.184C104.056 27.008 103.813 26.88 103.536 26.8C103.258 26.7147 102.965 26.672 102.656 26.672C102.341 26.672 102.045 26.7147 101.768 26.8C101.49 26.88 101.248 27.008 101.04 27.184C100.832 27.3547 100.666 27.576 100.544 27.848C100.426 28.1147 100.368 28.4347 100.368 28.808C100.368 29.112 100.418 29.392 100.52 29.648C100.621 29.904 100.77 30.1253 100.968 30.312C101.165 30.4933 101.405 30.6347 101.688 30.736C101.97 30.8373 102.293 30.888 102.656 30.888ZM102.656 21.584C102.325 21.584 102.034 21.6347 101.784 21.736C101.538 21.832 101.333 21.9653 101.168 22.136C101.002 22.3067 100.877 22.504 100.792 22.728C100.712 22.952 100.672 23.192 100.672 23.448C100.672 23.6987 100.706 23.944 100.776 24.184C100.85 24.4187 100.965 24.6293 101.12 24.816C101.28 24.9973 101.485 25.144 101.736 25.256C101.986 25.368 102.293 25.424 102.656 25.424C103.013 25.424 103.317 25.368 103.568 25.256C103.824 25.144 104.029 24.9973 104.184 24.816C104.344 24.6293 104.458 24.4187 104.528 24.184C104.602 23.944 104.64 23.6987 104.64 23.448C104.64 23.192 104.597 22.952 104.512 22.728C104.432 22.504 104.309 22.3067 104.144 22.136C103.978 21.9653 103.77 21.832 103.52 21.736C103.274 21.6347 102.986 21.584 102.656 21.584ZM104.376 26.008C105.09 26.2213 105.632 26.5653 106 27.04C106.373 27.5147 106.56 28.1147 106.56 28.84C106.56 29.3413 106.464 29.7947 106.272 30.2C106.085 30.6053 105.818 30.952 105.472 31.24C105.13 31.5227 104.72 31.7413 104.24 31.896C103.76 32.0507 103.232 32.128 102.656 32.128C102.08 32.128 101.552 32.0507 101.072 31.896C100.592 31.7413 100.178 31.5227 99.8316 31.24C99.4903 30.952 99.2236 30.6053 99.0316 30.2C98.845 29.7947 98.7516 29.3413 98.7516 28.84C98.7516 28.1147 98.9356 27.5147 99.3036 27.04C99.677 26.5653 100.221 26.2213 100.936 26.008C100.344 25.784 99.8983 25.4507 99.5996 25.008C99.301 24.56 99.1516 24.0293 99.1516 23.416C99.1516 22.9893 99.2343 22.592 99.3996 22.224C99.5703 21.8507 99.8076 21.528 100.112 21.256C100.421 20.984 100.792 20.7707 101.224 20.616C101.656 20.4613 102.133 20.384 102.656 20.384C103.178 20.384 103.656 20.4613 104.088 20.616C104.52 20.7707 104.888 20.984 105.192 21.256C105.501 21.528 105.738 21.8507 105.904 22.224C106.074 22.592 106.16 22.9893 106.16 23.416C106.16 24.0293 106.01 24.56 105.712 25.008C105.413 25.4507 104.968 25.784 104.376 26.008ZM108.289 23.64C108.369 23.1067 108.518 22.6373 108.737 22.232C108.956 21.8267 109.23 21.488 109.561 21.216C109.892 20.9387 110.27 20.7307 110.697 20.592C111.129 20.4533 111.593 20.384 112.089 20.384C112.585 20.384 113.041 20.456 113.457 20.6C113.873 20.7387 114.228 20.9387 114.521 21.2C114.82 21.456 115.052 21.7653 115.217 22.128C115.382 22.4907 115.465 22.8907 115.465 23.328C115.465 23.696 115.42 24.0213 115.329 24.304C115.238 24.5867 115.108 24.8347 114.937 25.048C114.772 25.2613 114.569 25.4427 114.329 25.592C114.089 25.736 113.82 25.856 113.521 25.952C114.252 26.1547 114.801 26.4853 115.169 26.944C115.537 27.3973 115.721 27.9733 115.721 28.672C115.721 29.2107 115.62 29.696 115.417 30.128C115.214 30.5547 114.937 30.9173 114.585 31.216C114.233 31.5093 113.822 31.736 113.353 31.896C112.889 32.0507 112.393 32.128 111.865 32.128C111.262 32.128 110.745 32.056 110.313 31.912C109.881 31.7627 109.513 31.5573 109.209 31.296C108.905 31.0293 108.652 30.712 108.449 30.344C108.252 29.9707 108.084 29.5627 107.945 29.12L108.625 28.832C108.801 28.7573 108.972 28.736 109.137 28.768C109.302 28.8 109.422 28.8933 109.497 29.048C109.577 29.208 109.668 29.3893 109.769 29.592C109.876 29.7893 110.017 29.9787 110.193 30.16C110.369 30.336 110.588 30.4853 110.849 30.608C111.116 30.7307 111.449 30.792 111.849 30.792C112.233 30.792 112.569 30.7307 112.857 30.608C113.145 30.48 113.385 30.3173 113.577 30.12C113.769 29.9173 113.913 29.6933 114.009 29.448C114.105 29.2027 114.153 28.96 114.153 28.72C114.153 28.4213 114.116 28.1467 114.041 27.896C113.966 27.6453 113.822 27.432 113.609 27.256C113.401 27.0747 113.11 26.9333 112.737 26.832C112.364 26.7307 111.878 26.68 111.281 26.68V25.544C111.772 25.5387 112.185 25.488 112.521 25.392C112.862 25.296 113.137 25.1627 113.345 24.992C113.553 24.8213 113.702 24.6187 113.793 24.384C113.889 24.1493 113.937 23.888 113.937 23.6C113.937 23.2853 113.889 23.0107 113.793 22.776C113.697 22.5413 113.561 22.3467 113.385 22.192C113.214 22.032 113.009 21.9147 112.769 21.84C112.534 21.76 112.278 21.72 112.001 21.72C111.724 21.72 111.468 21.76 111.233 21.84C110.998 21.92 110.79 22.032 110.609 22.176C110.428 22.32 110.276 22.4907 110.153 22.688C110.03 22.8853 109.942 23.0987 109.889 23.328C109.814 23.5307 109.718 23.6667 109.601 23.736C109.489 23.8053 109.326 23.8213 109.113 23.784L108.289 23.64ZM126.433 27.808V23.328C126.433 23.1733 126.436 23.0107 126.441 22.84C126.452 22.664 126.47 22.4827 126.497 22.296L122.473 27.808H126.433ZM129.465 27.808V28.712C129.465 28.8027 129.436 28.88 129.377 28.944C129.318 29.008 129.236 29.04 129.129 29.04H127.801V32H126.433V29.04H121.393C121.276 29.04 121.177 29.008 121.097 28.944C121.017 28.8747 120.964 28.7893 120.937 28.688L120.777 27.888L126.329 20.504H127.801V27.808H129.465ZM134.53 30.824C134.898 30.824 135.232 30.7653 135.53 30.648C135.829 30.5253 136.085 30.36 136.298 30.152C136.512 29.944 136.677 29.696 136.794 29.408C136.912 29.12 136.97 28.808 136.97 28.472C136.97 28.104 136.912 27.776 136.794 27.488C136.682 27.1947 136.522 26.9467 136.314 26.744C136.112 26.5413 135.866 26.3867 135.578 26.28C135.29 26.1733 134.97 26.12 134.618 26.12C134.25 26.12 133.92 26.184 133.626 26.312C133.333 26.4347 133.082 26.6027 132.874 26.816C132.666 27.024 132.506 27.2693 132.394 27.552C132.282 27.8347 132.226 28.1307 132.226 28.44C132.226 28.792 132.277 29.1147 132.378 29.408C132.48 29.7013 132.629 29.952 132.826 30.16C133.024 30.368 133.264 30.5307 133.546 30.648C133.834 30.7653 134.162 30.824 134.53 30.824ZM133.794 24.784C133.704 24.9013 133.613 25.016 133.522 25.128C133.437 25.2347 133.354 25.3413 133.274 25.448C133.53 25.2827 133.813 25.1547 134.122 25.064C134.437 24.9733 134.776 24.928 135.138 24.928C135.592 24.928 136.024 25.0027 136.434 25.152C136.845 25.3013 137.205 25.52 137.514 25.808C137.829 26.096 138.077 26.4533 138.258 26.88C138.44 27.3067 138.53 27.7973 138.53 28.352C138.53 28.88 138.434 29.376 138.242 29.84C138.05 30.2987 137.778 30.6987 137.426 31.04C137.08 31.376 136.664 31.6427 136.178 31.84C135.693 32.032 135.154 32.128 134.562 32.128C133.976 32.128 133.445 32.0347 132.97 31.848C132.501 31.6613 132.098 31.3973 131.762 31.056C131.432 30.7093 131.176 30.2933 130.994 29.808C130.813 29.3173 130.722 28.7733 130.722 28.176C130.722 27.664 130.832 27.1253 131.05 26.56C131.274 25.9893 131.626 25.3813 132.106 24.736L134.978 20.888C135.058 20.7813 135.17 20.6933 135.314 20.624C135.458 20.5493 135.624 20.512 135.81 20.512H137.202L133.794 24.784ZM143.828 30.888C144.19 30.888 144.513 30.8373 144.796 30.736C145.078 30.6347 145.318 30.4933 145.516 30.312C145.713 30.1253 145.862 29.904 145.964 29.648C146.065 29.392 146.116 29.112 146.116 28.808C146.116 28.4347 146.054 28.1147 145.932 27.848C145.809 27.576 145.644 27.3547 145.436 27.184C145.228 27.008 144.985 26.88 144.708 26.8C144.43 26.7147 144.137 26.672 143.828 26.672C143.513 26.672 143.217 26.7147 142.94 26.8C142.662 26.88 142.42 27.008 142.212 27.184C142.004 27.3547 141.838 27.576 141.716 27.848C141.598 28.1147 141.539 28.4347 141.539 28.808C141.539 29.112 141.59 29.392 141.692 29.648C141.793 29.904 141.942 30.1253 142.14 30.312C142.337 30.4933 142.577 30.6347 142.86 30.736C143.142 30.8373 143.465 30.888 143.828 30.888ZM143.828 21.584C143.497 21.584 143.206 21.6347 142.956 21.736C142.71 21.832 142.505 21.9653 142.34 22.136C142.174 22.3067 142.049 22.504 141.964 22.728C141.884 22.952 141.844 23.192 141.844 23.448C141.844 23.6987 141.878 23.944 141.948 24.184C142.022 24.4187 142.137 24.6293 142.292 24.816C142.452 24.9973 142.657 25.144 142.908 25.256C143.158 25.368 143.465 25.424 143.828 25.424C144.185 25.424 144.489 25.368 144.74 25.256C144.996 25.144 145.201 24.9973 145.356 24.816C145.516 24.6293 145.63 24.4187 145.7 24.184C145.774 23.944 145.812 23.6987 145.812 23.448C145.812 23.192 145.769 22.952 145.684 22.728C145.604 22.504 145.481 22.3067 145.316 22.136C145.15 21.9653 144.942 21.832 144.692 21.736C144.446 21.6347 144.158 21.584 143.828 21.584ZM145.548 26.008C146.262 26.2213 146.804 26.5653 147.172 27.04C147.545 27.5147 147.732 28.1147 147.732 28.84C147.732 29.3413 147.636 29.7947 147.444 30.2C147.257 30.6053 146.99 30.952 146.644 31.24C146.302 31.5227 145.892 31.7413 145.412 31.896C144.932 32.0507 144.404 32.128 143.828 32.128C143.252 32.128 142.724 32.0507 142.244 31.896C141.764 31.7413 141.35 31.5227 141.004 31.24C140.662 30.952 140.396 30.6053 140.204 30.2C140.017 29.7947 139.924 29.3413 139.924 28.84C139.924 28.1147 140.108 27.5147 140.476 27.04C140.849 26.5653 141.393 26.2213 142.108 26.008C141.516 25.784 141.07 25.4507 140.772 25.008C140.473 24.56 140.324 24.0293 140.324 23.416C140.324 22.9893 140.406 22.592 140.572 22.224C140.742 21.8507 140.98 21.528 141.284 21.256C141.593 20.984 141.964 20.7707 142.396 20.616C142.828 20.4613 143.305 20.384 143.828 20.384C144.35 20.384 144.828 20.4613 145.26 20.616C145.692 20.7707 146.06 20.984 146.364 21.256C146.673 21.528 146.91 21.8507 147.076 22.224C147.246 22.592 147.332 22.9893 147.332 23.416C147.332 24.0293 147.182 24.56 146.884 25.008C146.585 25.4507 146.14 25.784 145.548 26.008ZM156.357 30.52C156.527 30.52 156.661 30.5707 156.757 30.672C156.853 30.768 156.901 30.896 156.901 31.056V32H149.189V31.464C149.189 31.3573 149.21 31.2453 149.253 31.128C149.295 31.0053 149.367 30.896 149.469 30.8L153.101 27.16C153.405 26.856 153.679 26.5627 153.925 26.28C154.17 25.9973 154.378 25.7173 154.549 25.44C154.719 25.1573 154.85 24.8693 154.941 24.576C155.037 24.2827 155.085 23.9733 155.085 23.648C155.085 23.328 155.034 23.048 154.933 22.808C154.831 22.5627 154.693 22.36 154.517 22.2C154.341 22.04 154.133 21.92 153.893 21.84C153.653 21.76 153.394 21.72 153.117 21.72C152.839 21.72 152.583 21.76 152.349 21.84C152.119 21.92 151.914 22.032 151.733 22.176C151.551 22.32 151.399 22.4907 151.277 22.688C151.154 22.8853 151.066 23.0987 151.013 23.328C150.938 23.5307 150.842 23.6667 150.725 23.736C150.613 23.8053 150.447 23.8213 150.229 23.784L149.413 23.64C149.487 23.1067 149.634 22.6373 149.853 22.232C150.071 21.8267 150.346 21.488 150.677 21.216C151.007 20.9387 151.386 20.7307 151.813 20.592C152.245 20.4533 152.709 20.384 153.205 20.384C153.706 20.384 154.167 20.4587 154.589 20.608C155.015 20.752 155.383 20.9627 155.693 21.24C156.002 21.5173 156.245 21.856 156.421 22.256C156.597 22.6507 156.685 23.0987 156.685 23.6C156.685 24.0267 156.621 24.424 156.493 24.792C156.37 25.1547 156.199 25.5013 155.981 25.832C155.767 26.1627 155.517 26.4853 155.229 26.8C154.946 27.1093 154.645 27.424 154.325 27.744L151.413 30.72C151.637 30.6613 151.861 30.6133 152.085 30.576C152.314 30.5387 152.53 30.52 152.733 30.52H156.357ZM158.742 23.64C158.822 23.1067 158.971 22.6373 159.19 22.232C159.409 21.8267 159.683 21.488 160.014 21.216C160.345 20.9387 160.723 20.7307 161.15 20.592C161.582 20.4533 162.046 20.384 162.542 20.384C163.038 20.384 163.494 20.456 163.91 20.6C164.326 20.7387 164.681 20.9387 164.974 21.2C165.273 21.456 165.505 21.7653 165.67 22.128C165.835 22.4907 165.918 22.8907 165.918 23.328C165.918 23.696 165.873 24.0213 165.782 24.304C165.691 24.5867 165.561 24.8347 165.39 25.048C165.225 25.2613 165.022 25.4427 164.782 25.592C164.542 25.736 164.273 25.856 163.974 25.952C164.705 26.1547 165.254 26.4853 165.622 26.944C165.99 27.3973 166.174 27.9733 166.174 28.672C166.174 29.2107 166.073 29.696 165.87 30.128C165.667 30.5547 165.39 30.9173 165.038 31.216C164.686 31.5093 164.275 31.736 163.806 31.896C163.342 32.0507 162.846 32.128 162.318 32.128C161.715 32.128 161.198 32.056 160.766 31.912C160.334 31.7627 159.966 31.5573 159.662 31.296C159.358 31.0293 159.105 30.712 158.902 30.344C158.705 29.9707 158.537 29.5627 158.398 29.12L159.078 28.832C159.254 28.7573 159.425 28.736 159.59 28.768C159.755 28.8 159.875 28.8933 159.95 29.048C160.03 29.208 160.121 29.3893 160.222 29.592C160.329 29.7893 160.47 29.9787 160.646 30.16C160.822 30.336 161.041 30.4853 161.302 30.608C161.569 30.7307 161.902 30.792 162.302 30.792C162.686 30.792 163.022 30.7307 163.31 30.608C163.598 30.48 163.838 30.3173 164.03 30.12C164.222 29.9173 164.366 29.6933 164.462 29.448C164.558 29.2027 164.606 28.96 164.606 28.72C164.606 28.4213 164.569 28.1467 164.494 27.896C164.419 27.6453 164.275 27.432 164.062 27.256C163.854 27.0747 163.563 26.9333 163.19 26.832C162.817 26.7307 162.331 26.68 161.734 26.68V25.544C162.225 25.5387 162.638 25.488 162.974 25.392C163.315 25.296 163.59 25.1627 163.798 24.992C164.006 24.8213 164.155 24.6187 164.246 24.384C164.342 24.1493 164.39 23.888 164.39 23.6C164.39 23.2853 164.342 23.0107 164.246 22.776C164.15 22.5413 164.014 22.3467 163.838 22.192C163.667 22.032 163.462 21.9147 163.222 21.84C162.987 21.76 162.731 21.72 162.454 21.72C162.177 21.72 161.921 21.76 161.686 21.84C161.451 21.92 161.243 22.032 161.062 22.176C160.881 22.32 160.729 22.4907 160.606 22.688C160.483 22.8853 160.395 23.0987 160.342 23.328C160.267 23.5307 160.171 23.6667 160.054 23.736C159.942 23.8053 159.779 23.8213 159.566 23.784L158.742 23.64Z" fill="black"/>
<path d="M37.7945 3.666V13H37.0925C36.9842 13 36.8932 12.9805 36.8195 12.9415C36.7502 12.9025 36.6787 12.8397 36.605 12.753L31.3335 5.9345C31.3422 6.0515 31.3487 6.16633 31.353 6.279C31.3617 6.39167 31.366 6.49783 31.366 6.5975V13H30.1505V3.666H30.8655C30.9868 3.666 31.0778 3.68117 31.1385 3.7115C31.1992 3.7375 31.2663 3.80033 31.34 3.9L36.6245 10.725C36.6115 10.5993 36.6007 10.478 36.592 10.361C36.5877 10.2397 36.5855 10.127 36.5855 10.023V3.666H37.7945ZM44.015 8.9635C44.015 8.71217 43.9782 8.48033 43.9045 8.268C43.8352 8.05567 43.7312 7.8715 43.5925 7.7155C43.4538 7.5595 43.2848 7.43817 43.0855 7.3515C42.8862 7.26483 42.6565 7.2215 42.3965 7.2215C41.8635 7.2215 41.4432 7.37533 41.1355 7.683C40.8322 7.99067 40.6393 8.4175 40.557 8.9635H44.015ZM45.0615 12.0575C44.9055 12.2395 44.7257 12.3977 44.522 12.532C44.3183 12.662 44.1017 12.7682 43.872 12.8505C43.6423 12.9328 43.404 12.9935 43.157 13.0325C42.9143 13.0715 42.6738 13.091 42.4355 13.091C41.9805 13.091 41.558 13.0152 41.168 12.8635C40.7823 12.7075 40.4465 12.4822 40.1605 12.1875C39.8788 11.8885 39.6578 11.5202 39.4975 11.0825C39.3415 10.6405 39.2635 10.1335 39.2635 9.5615C39.2635 9.10217 39.335 8.67533 39.478 8.281C39.621 7.88233 39.8247 7.53567 40.089 7.241C40.3577 6.94633 40.6848 6.7145 41.0705 6.5455C41.4562 6.3765 41.8895 6.292 42.3705 6.292C42.7735 6.292 43.144 6.35917 43.482 6.4935C43.8243 6.6235 44.119 6.81417 44.366 7.0655C44.613 7.31683 44.8058 7.62667 44.9445 7.995C45.0875 8.36333 45.159 8.78367 45.159 9.256C45.159 9.451 45.1373 9.58317 45.094 9.6525C45.0507 9.7175 44.9705 9.75 44.8535 9.75H40.5245C40.5375 10.1443 40.5938 10.4888 40.6935 10.7835C40.7932 11.0738 40.9297 11.3165 41.103 11.5115C41.2807 11.7065 41.4908 11.8517 41.7335 11.947C41.9762 12.0423 42.247 12.09 42.546 12.09C42.8277 12.09 43.0703 12.0575 43.274 11.9925C43.482 11.9275 43.6597 11.8582 43.807 11.7845C43.9587 11.7065 44.0843 11.635 44.184 11.57C44.288 11.505 44.379 11.4725 44.457 11.4725C44.561 11.4725 44.6412 11.5115 44.6975 11.5895L45.0615 12.0575ZM50.8959 8.9635C50.8959 8.71217 50.859 8.48033 50.7854 8.268C50.716 8.05567 50.612 7.8715 50.4734 7.7155C50.3347 7.5595 50.1657 7.43817 49.9664 7.3515C49.767 7.26483 49.5374 7.2215 49.2774 7.2215C48.7444 7.2215 48.324 7.37533 48.0164 7.683C47.713 7.99067 47.5202 8.4175 47.4379 8.9635H50.8959ZM51.9424 12.0575C51.7864 12.2395 51.6065 12.3977 51.4029 12.532C51.1992 12.662 50.9825 12.7682 50.7529 12.8505C50.5232 12.9328 50.2849 12.9935 50.0379 13.0325C49.7952 13.0715 49.5547 13.091 49.3164 13.091C48.8614 13.091 48.4389 13.0152 48.0489 12.8635C47.6632 12.7075 47.3274 12.4822 47.0414 12.1875C46.7597 11.8885 46.5387 11.5202 46.3784 11.0825C46.2224 10.6405 46.1444 10.1335 46.1444 9.5615C46.1444 9.10217 46.2159 8.67533 46.3589 8.281C46.5019 7.88233 46.7055 7.53567 46.9699 7.241C47.2385 6.94633 47.5657 6.7145 47.9514 6.5455C48.337 6.3765 48.7704 6.292 49.2514 6.292C49.6544 6.292 50.0249 6.35917 50.3629 6.4935C50.7052 6.6235 50.9999 6.81417 51.2469 7.0655C51.4939 7.31683 51.6867 7.62667 51.8254 7.995C51.9684 8.36333 52.0399 8.78367 52.0399 9.256C52.0399 9.451 52.0182 9.58317 51.9749 9.6525C51.9315 9.7175 51.8514 9.75 51.7344 9.75H47.4054C47.4184 10.1443 47.4747 10.4888 47.5744 10.7835C47.674 11.0738 47.8105 11.3165 47.9839 11.5115C48.1615 11.7065 48.3717 11.8517 48.6144 11.947C48.857 12.0423 49.1279 12.09 49.4269 12.09C49.7085 12.09 49.9512 12.0575 50.1549 11.9925C50.3629 11.9275 50.5405 11.8582 50.6879 11.7845C50.8395 11.7065 50.9652 11.635 51.0649 11.57C51.1689 11.505 51.2599 11.4725 51.3379 11.4725C51.4419 11.4725 51.522 11.5115 51.5784 11.5895L51.9424 12.0575ZM57.6597 7.995C57.4517 7.722 57.2264 7.53133 56.9837 7.423C56.7454 7.31467 56.4767 7.2605 56.1777 7.2605C55.5971 7.2605 55.1464 7.47067 54.8257 7.891C54.5094 8.307 54.3512 8.91583 54.3512 9.7175C54.3512 10.1378 54.3859 10.4975 54.4552 10.7965C54.5289 11.0912 54.6329 11.3338 54.7672 11.5245C54.9059 11.7108 55.0749 11.8495 55.2742 11.9405C55.4736 12.0272 55.6989 12.0705 55.9502 12.0705C56.3186 12.0705 56.6371 11.9882 56.9057 11.8235C57.1744 11.6588 57.4257 11.427 57.6597 11.128V7.995ZM58.9337 3.406V13H58.1667C57.9891 13 57.8786 12.9155 57.8352 12.7465L57.7247 11.986C57.4431 12.3197 57.1224 12.5883 56.7627 12.792C56.4074 12.9913 55.9957 13.091 55.5277 13.091C55.1507 13.091 54.8084 13.0173 54.5007 12.87C54.1974 12.7227 53.9374 12.5082 53.7207 12.2265C53.5041 11.9405 53.3372 11.5873 53.2202 11.167C53.1032 10.7467 53.0447 10.2635 53.0447 9.7175C53.0447 9.22783 53.1097 8.77283 53.2397 8.3525C53.3697 7.93217 53.5582 7.56817 53.8052 7.2605C54.0522 6.95283 54.3512 6.71233 54.7022 6.539C55.0532 6.36133 55.4497 6.2725 55.8917 6.2725C56.2904 6.2725 56.6284 6.3375 56.9057 6.4675C57.1874 6.5975 57.4387 6.78167 57.6597 7.02V3.406H58.9337ZM71.8941 3.666V13H70.5096V8.7945H65.6411V13H64.2501V3.666H65.6411V7.787H70.5096V3.666H71.8941ZM78.1146 8.9635C78.1146 8.71217 78.0778 8.48033 78.0041 8.268C77.9348 8.05567 77.8308 7.8715 77.6921 7.7155C77.5534 7.5595 77.3844 7.43817 77.1851 7.3515C76.9858 7.26483 76.7561 7.2215 76.4961 7.2215C75.9631 7.2215 75.5428 7.37533 75.2351 7.683C74.9318 7.99067 74.7389 8.4175 74.6566 8.9635H78.1146ZM79.1611 12.0575C79.0051 12.2395 78.8253 12.3977 78.6216 12.532C78.4179 12.662 78.2013 12.7682 77.9716 12.8505C77.7419 12.9328 77.5036 12.9935 77.2566 13.0325C77.0139 13.0715 76.7734 13.091 76.5351 13.091C76.0801 13.091 75.6576 13.0152 75.2676 12.8635C74.8819 12.7075 74.5461 12.4822 74.2601 12.1875C73.9784 11.8885 73.7574 11.5202 73.5971 11.0825C73.4411 10.6405 73.3631 10.1335 73.3631 9.5615C73.3631 9.10217 73.4346 8.67533 73.5776 8.281C73.7206 7.88233 73.9243 7.53567 74.1886 7.241C74.4573 6.94633 74.7844 6.7145 75.1701 6.5455C75.5558 6.3765 75.9891 6.292 76.4701 6.292C76.8731 6.292 77.2436 6.35917 77.5816 6.4935C77.9239 6.6235 78.2186 6.81417 78.4656 7.0655C78.7126 7.31683 78.9054 7.62667 79.0441 7.995C79.1871 8.36333 79.2586 8.78367 79.2586 9.256C79.2586 9.451 79.2369 9.58317 79.1936 9.6525C79.1503 9.7175 79.0701 9.75 78.9531 9.75H74.6241C74.6371 10.1443 74.6934 10.4888 74.7931 10.7835C74.8928 11.0738 75.0293 11.3165 75.2026 11.5115C75.3803 11.7065 75.5904 11.8517 75.8331 11.947C76.0758 12.0423 76.3466 12.09 76.6456 12.09C76.9273 12.09 77.1699 12.0575 77.3736 11.9925C77.5816 11.9275 77.7593 11.8582 77.9066 11.7845C78.0583 11.7065 78.1839 11.635 78.2836 11.57C78.3876 11.505 78.4786 11.4725 78.5566 11.4725C78.6606 11.4725 78.7408 11.5115 78.7971 11.5895L79.1611 12.0575ZM81.921 3.406V13H80.647V3.406H81.921ZM84.9988 11.375C85.2068 11.648 85.43 11.8387 85.6683 11.947C85.911 12.0553 86.1818 12.1095 86.4808 12.1095C87.0615 12.1095 87.51 11.9015 87.8263 11.4855C88.147 11.0652 88.3073 10.4542 88.3073 9.6525C88.3073 9.23217 88.2705 8.87467 88.1968 8.58C88.1275 8.281 88.0235 8.03833 87.8848 7.852C87.7505 7.66133 87.5837 7.52267 87.3843 7.436C87.185 7.345 86.9597 7.2995 86.7083 7.2995C86.34 7.2995 86.0193 7.38183 85.7463 7.5465C85.4777 7.71117 85.2285 7.94517 84.9988 8.2485V11.375ZM84.9338 7.384C85.0725 7.21933 85.2198 7.06983 85.3758 6.9355C85.5362 6.79683 85.7073 6.67983 85.8893 6.5845C86.0713 6.48483 86.2642 6.409 86.4678 6.357C86.6758 6.30067 86.8968 6.2725 87.1308 6.2725C87.5078 6.2725 87.848 6.34617 88.1513 6.4935C88.459 6.64083 88.7212 6.8575 88.9378 7.1435C89.1545 7.4295 89.3213 7.78267 89.4383 8.203C89.5597 8.62333 89.6203 9.1065 89.6203 9.6525C89.6203 10.1422 89.5532 10.5972 89.4188 11.0175C89.2888 11.4335 89.1003 11.7953 88.8533 12.103C88.6107 12.4107 88.3117 12.6533 87.9563 12.831C87.6053 13.0043 87.2088 13.091 86.7668 13.091C86.3725 13.091 86.0345 13.026 85.7528 12.896C85.4712 12.766 85.2198 12.584 84.9988 12.35V15.2165H83.7313V6.396H84.4918C84.6695 6.396 84.78 6.4805 84.8233 6.6495L84.9338 7.384ZM90.2606 4.498C90.3992 4.37233 90.5509 4.25317 90.7156 4.1405C90.8802 4.02783 91.0601 3.92817 91.2551 3.8415C91.4501 3.75483 91.6602 3.68767 91.8856 3.64C92.1152 3.588 92.3622 3.562 92.6266 3.562C92.9776 3.562 93.3004 3.61183 93.5951 3.7115C93.8941 3.81117 94.1497 3.95417 94.3621 4.1405C94.5787 4.32683 94.7477 4.55217 94.8691 4.8165C94.9904 5.0765 95.0511 5.369 95.0511 5.694C95.0511 6.02333 95.0012 6.30933 94.9016 6.552C94.8062 6.79033 94.6849 6.99833 94.5376 7.176C94.3902 7.35367 94.2277 7.50967 94.0501 7.644C93.8767 7.774 93.7121 7.8975 93.5561 8.0145C93.4044 8.1315 93.2722 8.2485 93.1596 8.3655C93.0512 8.47817 92.9862 8.606 92.9646 8.749L92.8411 9.7305H91.9766L91.8856 8.658C91.8639 8.45867 91.8986 8.28533 91.9896 8.138C92.0806 7.99067 92.1976 7.85417 92.3406 7.7285C92.4879 7.5985 92.6504 7.47283 92.8281 7.3515C93.0057 7.23017 93.1704 7.09583 93.3221 6.9485C93.4737 6.79683 93.6016 6.62783 93.7056 6.4415C93.8096 6.25083 93.8616 6.0255 93.8616 5.7655C93.8616 5.58783 93.8269 5.4275 93.7576 5.2845C93.6882 5.1415 93.5929 5.02017 93.4716 4.9205C93.3502 4.8165 93.2072 4.7385 93.0426 4.6865C92.8779 4.63017 92.7024 4.602 92.5161 4.602C92.2561 4.602 92.0351 4.6345 91.8531 4.6995C91.6711 4.76017 91.5151 4.82733 91.3851 4.901C91.2594 4.97467 91.1554 5.044 91.0731 5.109C90.9907 5.16967 90.9214 5.2 90.8651 5.2C90.7394 5.2 90.6484 5.14583 90.5921 5.0375L90.2606 4.498ZM91.5216 12.2395C91.5216 12.1225 91.5432 12.012 91.5866 11.908C91.6299 11.804 91.6884 11.713 91.7621 11.635C91.8401 11.557 91.9311 11.4963 92.0351 11.453C92.1391 11.4053 92.2517 11.3815 92.3731 11.3815C92.4901 11.3815 92.6006 11.4053 92.7046 11.453C92.8086 11.4963 92.8996 11.557 92.9776 11.635C93.0556 11.713 93.1162 11.804 93.1596 11.908C93.2072 12.012 93.2311 12.1225 93.2311 12.2395C93.2311 12.3608 93.2072 12.4735 93.1596 12.5775C93.1162 12.6815 93.0556 12.7725 92.9776 12.8505C92.8996 12.9285 92.8086 12.9892 92.7046 13.0325C92.6006 13.0758 92.4901 13.0975 92.3731 13.0975C92.2517 13.0975 92.1391 13.0758 92.0351 13.0325C91.9311 12.9892 91.8401 12.9285 91.7621 12.8505C91.6884 12.7725 91.6299 12.6815 91.5866 12.5775C91.5432 12.4735 91.5216 12.3608 91.5216 12.2395Z" fill="black"/>
<path d="M15.0781 23.4487H4.11226C1.84595 23.4487 0 25.2947 0 27.5608V28.9316H0.913825V27.5608C0.913825 25.7972 2.34852 24.3626 4.11226 24.3626H5.02608V26.4597L9.59521 29.0001L14.1643 26.4597V24.3626H15.0782C16.8417 24.3626 18.2766 25.7972 18.2766 27.5608V28.9316H19.1904V27.5608C19.1904 25.2947 17.3445 23.4487 15.0782 23.4487H15.0781ZM11.1029 24.3626L9.59504 27.0765L8.08733 24.3626H11.1029ZM5.93978 24.3626H7.04091L8.78636 27.5016L5.93978 25.9206V24.3626ZM13.2505 25.9207L10.4039 27.5016L12.1492 24.3626H13.2505V25.9207Z" fill="black"/>
<path d="M2.28471 17.966H3.65554V13.8537C3.65554 10.5776 6.31932 7.914 9.59523 7.914C12.8711 7.914 15.5349 10.5778 15.5349 13.8537V17.966C15.5349 18.4685 15.1237 18.8798 14.6211 18.8798H14.4246C14.5481 18.4411 14.6211 17.9841 14.6211 17.5089V13.8537C14.6211 11.0801 12.3686 8.82756 9.59496 8.82756C6.82158 8.82756 4.56883 11.0801 4.56883 13.8537V17.5089C4.56883 20.2825 6.82153 22.5351 9.59496 22.5351C11.5414 22.5351 13.2321 21.4201 14.0682 19.7936H14.621C15.6308 19.7936 16.4487 18.9756 16.4487 17.966H16.9057C17.6596 17.966 18.2763 17.3491 18.2763 16.5952V14.7675C18.2763 14.0136 17.6596 13.3967 16.9057 13.3967H16.4259C16.1883 9.83274 13.2183 7 9.59519 7C5.97188 7 3.00182 9.83296 2.76448 13.3967H2.28471C1.53093 13.3967 0.914062 14.0136 0.914062 14.7675V16.5952C0.914062 17.3491 1.53093 17.966 2.28471 17.966V17.966ZM9.59541 21.6212C7.3291 21.6212 5.48315 19.7753 5.48315 17.5089V14.7675H8.68158C10.194 14.7675 11.423 13.5383 11.423 12.0259H10.5092C10.5092 13.0357 9.69136 13.8537 8.68154 13.8537H5.4831C5.4831 11.5874 7.32905 9.74143 9.59536 9.74143C11.8617 9.74143 13.7076 11.5874 13.7076 13.8537V17.5089C13.7076 17.9887 13.6208 18.4502 13.4654 18.8798H10.8793C10.692 18.3498 10.1894 17.966 9.59088 17.966C8.83691 17.966 8.22005 18.5826 8.22005 19.3366C8.22005 20.0906 8.83691 20.7074 9.59088 20.7074C10.1848 20.7074 10.6874 20.3236 10.8793 19.7936H13.0086C12.2729 20.8947 11.0164 21.6213 9.59534 21.6213L9.59541 21.6212ZM10.0524 19.3366C10.0524 19.588 9.84679 19.7936 9.59541 19.7936C9.34402 19.7936 9.13858 19.588 9.13858 19.3366C9.13858 19.0854 9.34403 18.8798 9.59541 18.8798C9.84678 18.8798 10.0524 19.0854 10.0524 19.3366ZM17.3631 14.7675V16.5951C17.3631 16.8465 17.1575 17.0519 16.9063 17.0519H16.4493V14.3105H16.9063C17.1575 14.3105 17.3631 14.5161 17.3631 14.7675V14.7675ZM1.82815 14.7675C1.82815 14.5161 2.03377 14.3105 2.28498 14.3105H2.74198V17.0519H2.28498C2.03378 17.0519 1.82815 16.8465 1.82815 16.5951V14.7675Z" fill="black"/>
</svg>
