<svg width="34" height="34" viewBox="0 0 34 34" fill="none" xmlns="http://www.w3.org/2000/svg">
<g clip-path="url(#clip0_11010_1767)">
<path d="M9.26367 33.502C7.88833 33.502 6.77344 32.3871 6.77344 31.0117V2.98828C6.77344 1.61294 7.88833 0.498047 9.26367 0.498047H24.7363C26.1117 0.498047 27.2266 1.61294 27.2266 2.98828V31.0117C27.2266 32.3871 26.1117 33.502 24.7363 33.502H9.26367Z" fill="#E6F7FE"/>
<path d="M11.123 33.502H9.26367C7.8884 33.502 6.77344 32.387 6.77344 31.0117V2.98828C6.77344 1.61301 7.8884 0.498047 9.26367 0.498047H11.123C9.74777 0.498047 8.63281 1.61301 8.63281 2.98828V31.0117C8.63281 32.387 9.74777 33.502 11.123 33.502Z" fill="#D3EFFD"/>
<path d="M17.8301 2.98828H14.5098C14.2346 2.98828 14.0117 2.76529 14.0117 2.49023C14.0117 2.21518 14.2346 1.99219 14.5098 1.99219H17.8301C18.1052 1.99219 18.3281 2.21518 18.3281 2.49023C18.3281 2.76529 18.1052 2.98828 17.8301 2.98828Z" fill="#9BB9C3"/>
<path d="M19.4902 2.98873C19.4577 2.98873 19.4252 2.98541 19.3926 2.97877C19.3613 2.97279 19.3295 2.96283 19.2996 2.95022C19.2698 2.93826 19.2405 2.92299 19.214 2.90506C19.1868 2.88647 19.1609 2.86588 19.1383 2.84264C19.0453 2.75033 18.9922 2.62217 18.9922 2.49069C18.9922 2.3592 19.0453 2.23104 19.1383 2.13873C19.1609 2.11549 19.1867 2.0949 19.214 2.07631C19.2405 2.05838 19.2698 2.04311 19.2996 2.03115C19.3295 2.01854 19.3614 2.00858 19.3926 2.0026C19.5546 1.97006 19.7266 2.02319 19.8422 2.13873C19.9352 2.23104 19.9883 2.3592 19.9883 2.49069C19.9883 2.62217 19.9352 2.75033 19.8422 2.84264C19.7499 2.93561 19.6217 2.98873 19.4902 2.98873Z" fill="#9BB9C3"/>
<path d="M16.9996 27.7911L6.77306 21.3506L0.854532 17.6233C0.689114 17.5191 0.689114 17.278 0.854532 17.1738L6.77306 13.4464L16.7165 7.18427C16.8895 7.0753 17.1097 7.0753 17.2827 7.18427L27.2262 13.4464L33.1447 17.1738C33.3101 17.278 33.3101 17.5191 33.1447 17.6233L27.2262 21.3506L16.9996 27.7911Z" fill="#B3E59F"/>
<path d="M7.27132 13.1328V21.6634L6.77327 21.3499L6.27522 21.0365L0.854482 17.6225C0.689131 17.5189 0.689131 17.2772 0.854482 17.1736L6.27522 13.7597L6.77327 13.4463L7.27132 13.1328Z" fill="#95D6A4"/>
<path d="M33.1454 17.6225L27.7246 21.0365L27.2266 21.3499L26.7285 21.6634V13.1328L27.2266 13.4463L27.7246 13.7597L33.1454 17.1736C33.3107 17.2772 33.3107 17.5189 33.1454 17.6225Z" fill="#95D6A4"/>
<path d="M22.7441 13.8294V20.9667C22.7441 21.0809 22.6857 21.1865 22.5901 21.2469L17.172 24.6635C17.1189 24.6961 17.0598 24.7114 17 24.7114C16.9382 24.7107 16.8765 24.6928 16.8227 24.6589L11.4757 21.2476C11.38 21.1872 11.3223 21.0816 11.3223 20.968V13.828C11.3223 13.7723 11.3362 13.7185 11.3621 13.6713C11.388 13.6215 11.4272 13.579 11.4757 13.5485L16.8227 10.1372C16.9309 10.0681 17.0697 10.0674 17.178 10.1358L22.5894 13.5485C22.6386 13.579 22.6777 13.6215 22.7043 13.6713C22.7302 13.7191 22.7441 13.7736 22.7441 13.8294Z" fill="#B4D2D7"/>
<path d="M17 17.208V24.7119C16.9382 24.7113 16.8765 24.6933 16.8227 24.6595L11.4757 21.2482C11.38 21.1877 11.3223 21.0821 11.3223 20.9686V13.8286C11.3223 13.7728 11.3362 13.719 11.3621 13.6719L16.8227 17.1555C16.8765 17.1907 16.9382 17.208 17 17.208Z" fill="#87A0AF"/>
<path d="M22.7441 13.8299V20.9673C22.7441 21.0815 22.6857 21.1871 22.5901 21.2475L17.172 24.6641C17.1189 24.6966 17.0598 24.7119 17 24.7119V17.208C17.0618 17.208 17.1235 17.1914 17.178 17.1569L22.7043 13.6719C22.7302 13.7197 22.7441 13.7741 22.7441 13.8299Z" fill="#9BB9C3"/>
<path d="M26.7285 21.6641V22.9922L17.2831 28.9412C17.1101 29.0502 16.8898 29.0502 16.7168 28.9412L7.27148 22.9922V21.6641L16.7169 27.6131C16.8899 27.722 17.1101 27.722 17.2832 27.6131L26.7285 21.6641Z" fill="#D3EFFD"/>
<path d="M24.7363 34H9.26367C7.61593 34 6.27539 32.6595 6.27539 31.0117V2.98828C6.27539 1.34054 7.61593 0 9.26367 0H24.7363C26.3841 0 27.7246 1.34054 27.7246 2.98828V31.0117C27.7246 32.6595 26.3841 34 24.7363 34ZM9.26367 0.996094C8.16518 0.996094 7.27148 1.88979 7.27148 2.98828V31.0117C7.27148 32.1102 8.16518 33.0039 9.26367 33.0039H24.7363C25.8348 33.0039 26.7285 32.1102 26.7285 31.0117V2.98828C26.7285 1.88979 25.8348 0.996094 24.7363 0.996094H9.26367Z" fill="#2F535A"/>
</g>
<defs>
<clipPath id="clip0_11010_1767">
<rect width="34" height="34" fill="white"/>
</clipPath>
</defs>
</svg>
