<svg width="69" height="26" viewBox="0 0 69 26" fill="none" xmlns="http://www.w3.org/2000/svg">
<g clip-path="url(#clip0_11033_3327)">
<path d="M9.62695 23.1113C10.5244 23.1113 11.252 22.3838 11.252 21.4863C11.252 20.5889 10.5244 19.8613 9.62695 19.8613C8.72949 19.8613 8.00195 20.5889 8.00195 21.4863C8.00195 22.3838 8.72949 23.1113 9.62695 23.1113Z" fill="black"/>
<path d="M19.5 23.1113C20.3975 23.1113 21.125 22.3838 21.125 21.4863C21.125 20.5889 20.3975 19.8613 19.5 19.8613C18.6025 19.8613 17.875 20.5889 17.875 21.4863C17.875 22.3838 18.6025 23.1113 19.5 23.1113Z" fill="black"/>
<path d="M23.8918 3.87846C23.8246 3.79561 23.7399 3.72868 23.6437 3.68248C23.5475 3.63627 23.4423 3.61194 23.3357 3.61124H8.299L8.76845 5.05568H22.3896L20.4612 13.7223H9.62789L6.32734 3.27179C6.29164 3.1609 6.22964 3.06029 6.14664 2.97855C6.06364 2.8968 5.96209 2.83635 5.85067 2.80235L2.88956 1.89235C2.79851 1.86437 2.70284 1.8546 2.60801 1.86359C2.51319 1.87259 2.42106 1.90017 2.3369 1.94477C2.16691 2.03484 2.03968 2.18874 1.98317 2.37263C1.92666 2.55651 1.94552 2.75531 2.03559 2.92529C2.12566 3.09527 2.27956 3.22251 2.46345 3.27902L5.05623 4.07346L8.37123 14.5457L7.18678 15.5135L7.09289 15.6073C6.79991 15.945 6.63385 16.3742 6.6233 16.8211C6.61276 17.268 6.75839 17.7046 7.03511 18.0557C7.23196 18.2951 7.4821 18.4851 7.76553 18.6105C8.04895 18.7359 8.35779 18.7932 8.66734 18.7779H20.7212C20.9128 18.7779 21.0965 18.7018 21.2319 18.5664C21.3674 18.4309 21.4434 18.2472 21.4434 18.0557C21.4434 17.8641 21.3674 17.6804 21.2319 17.545C21.0965 17.4095 20.9128 17.3335 20.7212 17.3335H8.55178C8.46862 17.3306 8.38759 17.3064 8.31652 17.2631C8.24546 17.2198 8.18676 17.1589 8.14611 17.0863C8.10545 17.0137 8.0842 16.9318 8.08441 16.8486C8.08463 16.7654 8.1063 16.6836 8.14734 16.6112L9.88789 15.1668H21.039C21.206 15.1709 21.3692 15.117 21.5008 15.0143C21.6325 14.9115 21.7245 14.7664 21.7612 14.6035L24.0507 4.49235C24.0726 4.38468 24.0697 4.27342 24.0422 4.16703C24.0147 4.06065 23.9632 3.96195 23.8918 3.87846Z" fill="black"/>
</g>
<path d="M47.44 15.536C47.536 15.536 47.6187 15.5733 47.688 15.648L48.36 16.384C47.8907 16.9387 47.3173 17.368 46.64 17.672C45.968 17.976 45.1573 18.128 44.208 18.128C43.376 18.128 42.6213 17.984 41.944 17.696C41.272 17.408 40.696 17.0053 40.216 16.488C39.7413 15.9707 39.3733 15.352 39.112 14.632C38.8507 13.912 38.72 13.12 38.72 12.256C38.72 11.392 38.856 10.6 39.128 9.88C39.4053 9.16 39.792 8.54133 40.288 8.024C40.784 7.50667 41.376 7.104 42.064 6.816C42.7573 6.528 43.5227 6.384 44.36 6.384C45.176 6.384 45.9013 6.51733 46.536 6.784C47.1707 7.05067 47.7227 7.40533 48.192 7.848L47.632 8.64C47.5947 8.69867 47.5467 8.74667 47.488 8.784C47.4347 8.82133 47.3627 8.84 47.272 8.84C47.1707 8.84 47.0507 8.78933 46.912 8.688C46.7787 8.58667 46.6 8.47467 46.376 8.352C46.1573 8.224 45.8853 8.10933 45.56 8.008C45.2347 7.90667 44.8293 7.856 44.344 7.856C43.7733 7.856 43.2507 7.95733 42.776 8.16C42.3013 8.35733 41.8907 8.64533 41.544 9.024C41.2027 9.39733 40.936 9.85867 40.744 10.408C40.5573 10.952 40.464 11.568 40.464 12.256C40.464 12.9547 40.5627 13.576 40.76 14.12C40.9573 14.664 41.2293 15.1253 41.576 15.504C41.9227 15.8827 42.3307 16.1707 42.8 16.368C43.2693 16.5653 43.776 16.664 44.32 16.664C44.6507 16.664 44.9467 16.6453 45.208 16.608C45.4747 16.5653 45.7173 16.504 45.936 16.424C46.16 16.344 46.3707 16.2427 46.568 16.12C46.7653 15.992 46.96 15.84 47.152 15.664C47.1947 15.6267 47.24 15.5973 47.288 15.576C47.336 15.5493 47.3867 15.536 47.44 15.536ZM54.1203 14.392C53.4856 14.4133 52.9469 14.464 52.5043 14.544C52.0616 14.6187 51.7016 14.72 51.4243 14.848C51.1469 14.976 50.9469 15.128 50.8243 15.304C50.7016 15.4747 50.6403 15.6667 50.6403 15.88C50.6403 16.0827 50.6723 16.2587 50.7363 16.408C50.8056 16.552 50.8963 16.672 51.0082 16.768C51.1256 16.8587 51.2616 16.9253 51.4163 16.968C51.5709 17.0107 51.7389 17.032 51.9203 17.032C52.1603 17.032 52.3789 17.008 52.5763 16.96C52.7789 16.912 52.9683 16.8453 53.1443 16.76C53.3203 16.6693 53.4883 16.56 53.6483 16.432C53.8083 16.304 53.9656 16.1573 54.1203 15.992V14.392ZM49.5443 11.008C49.9976 10.576 50.4883 10.2533 51.0163 10.04C51.5496 9.82667 52.1336 9.72 52.7682 9.72C53.2323 9.72 53.6429 9.79733 54.0003 9.952C54.3576 10.1013 54.6589 10.312 54.9043 10.584C55.1496 10.856 55.3336 11.1813 55.4563 11.56C55.5843 11.9387 55.6483 12.3573 55.6483 12.816V18H54.9523C54.7976 18 54.6803 17.976 54.6003 17.928C54.5203 17.8747 54.4563 17.7787 54.4083 17.64L54.2403 16.928C54.0323 17.12 53.8269 17.2907 53.6243 17.44C53.4216 17.584 53.2083 17.7093 52.9843 17.816C52.7656 17.9173 52.5309 17.9947 52.2803 18.048C52.0296 18.1013 51.7523 18.128 51.4483 18.128C51.1283 18.128 50.8269 18.0853 50.5443 18C50.2669 17.9093 50.0243 17.7733 49.8163 17.592C49.6083 17.4107 49.4429 17.184 49.3203 16.912C49.2029 16.64 49.1443 16.3227 49.1443 15.96C49.1443 15.64 49.2296 15.3333 49.4003 15.04C49.5763 14.7413 49.8589 14.4747 50.2483 14.24C50.6429 14.0053 51.1549 13.8133 51.7843 13.664C52.4189 13.5147 53.1976 13.4293 54.1203 13.408V12.816C54.1203 12.2027 53.9896 11.744 53.7283 11.44C53.4669 11.136 53.0829 10.984 52.5763 10.984C52.2349 10.984 51.9469 11.0267 51.7123 11.112C51.4829 11.1973 51.2829 11.2933 51.1123 11.4C50.9469 11.5013 50.8003 11.5947 50.6723 11.68C50.5496 11.7653 50.4216 11.808 50.2883 11.808C50.1816 11.808 50.0883 11.7787 50.0083 11.72C49.9336 11.6613 49.8723 11.592 49.8243 11.512L49.5443 11.008ZM59.2086 11.432C59.47 10.8987 59.7846 10.48 60.1526 10.176C60.5206 9.872 60.9633 9.72 61.4806 9.72C61.6566 9.72 61.822 9.74133 61.9766 9.784C62.1366 9.82133 62.2753 9.88 62.3926 9.96L62.2886 11.136C62.2513 11.28 62.1633 11.352 62.0246 11.352C61.95 11.352 61.838 11.3387 61.6886 11.312C61.5393 11.28 61.3793 11.264 61.2086 11.264C60.958 11.264 60.7366 11.3013 60.5446 11.376C60.3526 11.4453 60.1793 11.552 60.0246 11.696C59.8753 11.8347 59.742 12.008 59.6246 12.216C59.5073 12.4187 59.398 12.6507 59.2966 12.912V18H57.7366V9.872H58.6326C58.8033 9.872 58.918 9.904 58.9766 9.968C59.0406 10.0267 59.086 10.1333 59.1126 10.288L59.2086 11.432ZM66.14 18.128C65.484 18.128 64.9773 17.944 64.62 17.576C64.268 17.208 64.092 16.6827 64.092 16V11.136H63.148C63.0573 11.136 62.98 11.1093 62.916 11.056C62.8573 10.9973 62.828 10.912 62.828 10.8V10.168L64.148 9.984L64.5 7.56C64.5213 7.46933 64.5613 7.4 64.62 7.352C64.684 7.29867 64.764 7.272 64.86 7.272H65.652V10H67.956V11.136H65.652V15.896C65.652 16.216 65.7293 16.456 65.884 16.616C66.044 16.7707 66.2467 16.848 66.492 16.848C66.636 16.848 66.7587 16.8293 66.86 16.792C66.9667 16.7547 67.0573 16.7147 67.132 16.672C67.2067 16.624 67.2707 16.5813 67.324 16.544C67.3773 16.5067 67.4253 16.488 67.468 16.488C67.5213 16.488 67.5613 16.5013 67.588 16.528C67.62 16.5493 67.652 16.5867 67.684 16.64L68.148 17.392C67.892 17.6267 67.588 17.808 67.236 17.936C66.884 18.064 66.5187 18.128 66.14 18.128Z" fill="black"/>
<defs>
<clipPath id="clip0_11033_3327">
<rect width="26" height="26" fill="white"/>
</clipPath>
</defs>
</svg>
