<svg width="125" height="94" viewBox="0 0 125 94" fill="none" xmlns="http://www.w3.org/2000/svg">
<path d="M30.4622 94C24.8599 94 20.0747 92.9517 16.1064 90.855C12.3716 88.7584 9.33707 85.8463 7.0028 82.119C4.66853 78.6245 2.91783 74.4312 1.7507 69.539C0.583566 64.4139 0 59.6382 0 55.2119C0 43.5638 2.91783 32.9641 8.7535 23.4126C14.8226 13.6282 24.043 5.82403 36.4146 0L39.5658 6.28997C32.7965 9.0855 26.8441 13.5118 21.7087 19.5688C16.8067 25.6258 13.8889 31.7993 12.9552 38.0892C12.2549 42.5155 12.3716 46.5923 13.3053 50.3197C17.9739 45.6605 23.9262 43.3309 31.1625 43.3309C38.6321 43.3309 44.8179 45.544 49.7199 49.9703C54.6218 54.3965 57.0728 60.6865 57.0728 68.8402C57.0728 76.2949 54.5051 82.3519 49.3698 87.0112C44.2344 91.6704 37.9318 94 30.4622 94ZM98.3894 94C92.7871 94 88.0019 92.9517 84.0336 90.855C80.2988 88.7584 77.2642 85.8463 74.93 82.119C72.5957 78.6245 70.845 74.4312 69.6779 69.539C68.5107 64.4139 67.9272 59.6382 67.9272 55.2119C67.9272 43.5638 70.845 32.9641 76.6807 23.4126C82.7498 13.6282 91.9701 5.82403 104.342 0L107.493 6.28997C100.724 9.0855 94.7712 13.5118 89.6358 19.5688C84.7339 25.6258 81.8161 31.7993 80.8823 38.0892C80.1821 42.5155 80.2988 46.5923 81.2325 50.3197C85.901 45.6605 91.8534 43.3309 99.0896 43.3309C106.559 43.3309 112.745 45.544 117.647 49.9703C122.549 54.3965 125 60.6865 125 68.8402C125 76.2949 122.432 82.3519 117.297 87.0112C112.162 91.6704 105.859 94 98.3894 94Z" fill="#FFF9E7"/>
</svg>
